<svg xmlns="http://www.w3.org/2000/svg" viewBox="0 0 524.1 157.06"><defs><style>.cls-1{fill:none;}.cls-2{fill:#fff;}</style></defs><title>Nick Mykkanen</title><g id="Layer_2" data-name="Layer 2"><g id="Layer_1-2" data-name="Layer 1"><g id="Layer_1-3" data-name="Layer 1"><path class="cls-1" d="M242.21,92.11l3.52-.34c.57-1,1.13-2.14,1.68-3.34-1.25.8-2.42,1.6-3.53,2.39C243.26,91.27,242.71,91.7,242.21,92.11Z"/><path class="cls-1" d="M328.92,78.77a16.54,16.54,0,0,0,2.43-2c.95-.92,1.94-2,3-3.21s2-2.35,2.86-3.4h-.11a3.41,3.41,0,0,0-1.92-.22,7.65,7.65,0,0,0-2.28.73,11.51,11.51,0,0,0-2.22,1.44,10.9,10.9,0,0,0-1.84,2,7.54,7.54,0,0,0-1.13,2.27,4.06,4.06,0,0,0,0,2.39C327.85,79.18,328.24,79.21,328.92,78.77Z"/><path class="cls-1" d="M382.51,79.84a6.71,6.71,0,0,1-.49-2.27c-.88.65-1.77,1.27-2.69,1.87a31.72,31.72,0,0,1-5.06,2.67,8.11,8.11,0,0,1-4.38.72,2.3,2.3,0,0,1-2.12-1.54,6.4,6.4,0,0,1-.13-2.92,15.56,15.56,0,0,1,.94-3.31c.44-1.11.79-2,1-2.73a9.88,9.88,0,0,0-2.09,1.07c-.78.5-1.56,1.06-2.32,1.66s-1.49,1.2-2.17,1.77-1.21,1-1.6,1.35a17.77,17.77,0,0,0-1.42,1.6,17.21,17.21,0,0,1-1.6,1.76,5.68,5.68,0,0,1-1.64,1.14,1.28,1.28,0,0,1-1.44-.22,1.74,1.74,0,0,1-.4-2,25,25,0,0,1,1.2-2.64q.48-.89,1-1.89c.34-.67.64-1.3.91-1.89a12.92,12.92,0,0,0,.62-1.6,1.51,1.51,0,0,0,0-1c-.11-.17-.3-.2-.59-.09a4.65,4.65,0,0,0-1,.56c-.39.27-.83.62-1.33,1l-.85.71a39.11,39.11,0,0,1-3.4,2.94,41.4,41.4,0,0,1-4.58,3.11,28.13,28.13,0,0,1-4.76,2.27,7.53,7.53,0,0,1-4.12.47,3.59,3.59,0,0,1-2.24-1.48,4.6,4.6,0,0,1-.64-2.48l-1,1.07c-.32.33-.68.69-1.07,1.07a9.52,9.52,0,0,1-2.33,1.79,6.41,6.41,0,0,1-2.59.82,3.63,3.63,0,0,1-2.35-.63A4.45,4.45,0,0,1,324.21,80a9.86,9.86,0,0,1-.3-2.19c-.63.46-1.28.92-1.94,1.34a23.15,23.15,0,0,1-3.83,2,17.07,17.07,0,0,1-4.31,1.13,5.77,5.77,0,0,1-2.67-.22,6.22,6.22,0,0,1-2.22-1.29,8.67,8.67,0,0,1-1.71-2.07,10,10,0,0,1-1.1-2.64c-.82,1-1.58,1.92-2.3,2.89s-1.25,1.66-1.6,2.08a3.44,3.44,0,0,1-1.58,1.16,1.61,1.61,0,0,1-1.34-.13,1.87,1.87,0,0,1-.8-1,3.07,3.07,0,0,1-.08-1.58c.21-.84.45-1.73.7-2.67s.57-1.94,1-3q-1.6,1.45-3.29,2.83a35.91,35.91,0,0,1-3.5,2.55,23.15,23.15,0,0,1-3.83,2,17,17,0,0,1-4.3,1.13,5.81,5.81,0,0,1-2.68-.22,6.22,6.22,0,0,1-2.22-1.29,8.67,8.67,0,0,1-1.71-2.07,10,10,0,0,1-1.1-2.64c-.81,1-1.58,1.92-2.3,2.89s-1.24,1.66-1.6,2.08A3.39,3.39,0,0,1,272,82.17a1.58,1.58,0,0,1-1.33-.13,1.84,1.84,0,0,1-.81-1,3.18,3.18,0,0,1-.08-1.58c.22-.84.45-1.73.7-2.67s.57-1.94,1-3l-.37.29c-.58.5-1.14,1-1.66,1.38-.79.61-1.56,1.17-2.33,1.7s-1.55,1-2.35,1.54-1.7,1-2.7,1.57l-1.18.66L258.77,82c-.8.44-1.7.93-2.7,1.45s-2,1.1-3.1,1.73L251.2,89.5c-.24.53-.53,1.16-.85,1.82,19.33-1.89,36.6-3.49,43.4-3.9l1.38-.08,7.35-.44c14.9-.89,41.93-2.47,67.85-3.62h4.33V83.1q5.46-.24,10.75-.44A5.22,5.22,0,0,1,382.51,79.84Z"/><path class="cls-1" d="M438.26,73c-.87.84-1.94,1.79-3.26,2.88a48.76,48.76,0,0,1-4.81,3.53,31.3,31.3,0,0,1-5.06,2.67,11.59,11.59,0,0,1-1.32.46h44.66c-6.36-2.11-12.2-3.51-17.45-5.94C446.44,74.5,442,72.09,438.26,73Z"/><path class="cls-1" d="M419.44,75.06c.44-1.11.79-2,1-2.73a9.6,9.6,0,0,0-2.08,1.07,27.62,27.62,0,0,0-2.33,1.66c-.77.61-1.49,1.2-2.17,1.77s-1.21,1-1.6,1.35a17.77,17.77,0,0,0-1.42,1.6,17.21,17.21,0,0,1-1.6,1.76,5.7,5.7,0,0,1-1.44,1h12a2,2,0,0,1-1.2-1.28,6.39,6.39,0,0,1-.14-2.92A15.56,15.56,0,0,1,419.44,75.06Z"/><path class="cls-1" d="M392.56,69.87a2.92,2.92,0,0,0-2.54.32,7.71,7.71,0,0,0-1.59,1.23,2,2,0,0,1-.63,1.22c-.31.31-.66.64-1,1a10.81,10.81,0,0,0-.65,1.38,4.25,4.25,0,0,0-.3,2.55h.11c.39-.3.93-.75,1.61-1.35s1.36-1.29,2-2A23.66,23.66,0,0,0,391.47,72,6.87,6.87,0,0,0,392.56,69.87Z"/><path class="cls-1" d="M407,77.8c.33-.59.65-1.22,1-1.89s.64-1.3.91-1.89a11.51,11.51,0,0,0,.62-1.6,1.51,1.51,0,0,0,.05-1c-.11-.17-.3-.2-.59-.09a4.62,4.62,0,0,0-1,.56c-.4.28-.84.62-1.34,1l-.72.61a.6.6,0,0,1-.08.08A32.15,32.15,0,0,1,403.1,76c-1.07.86-2.19,1.7-3.37,2.51s-2.34,1.56-3.48,2.21a19.83,19.83,0,0,1-2.94,1.41c-.42.16-.82.3-1.21.43h14.27l-.17-.11a1.74,1.74,0,0,1-.4-2A25,25,0,0,1,407,77.8Z"/><path class="cls-2" d="M60.78,105.61c26.52-55,40-88.37,40-99.23v-.7C100.74,2,98.93,0,95.5,0h-.43c-8.62,0-21,8.37-36.72,24.88C42.43,42.75,24.64,64.72,5.47,90.22a29.06,29.06,0,0,1,1.72-5L14.66,68C26.74,45.07,33,32.62,33.81,30l0-1-2.47-.4c-1.88,0-3.8,1.59-5.87,4.85l-.27.42,1.29.92a8.72,8.72,0,0,1-1,2.23C8.33,69.13,0,87.65,0,93.65v1.14L0,95c.4,1.25,1.73,1.88,4,1.88,1.57,0,3.13-1.08,4.75-3.29,4.95-6.27,11.38-14.68,19.12-25C60.81,25.86,83.31,3.8,94.69,3,95,3,95.8,3,95.8,4.86V6.38c0,8.36-7.37,28.44-21.89,59.68-23.72,49.77-35.24,78-35.24,86.24V153c0,1.59.69,3.59,4,4.05h2A1.2,1.2,0,0,0,46,155.78v-.66l-2.39-1.58v-2C43.61,146.37,49.39,130.93,60.78,105.61Z"/><path class="cls-2" d="M93.64,61.74A3,3,0,0,0,95.19,60a4.68,4.68,0,0,0,.24-2.69,2.27,2.27,0,0,0-1.82-1.87h-.37a.66.66,0,0,0-.48.21,1.84,1.84,0,0,0-1.18.71A3.22,3.22,0,0,0,91,57.7a4.45,4.45,0,0,0,0,1.59,3.43,3.43,0,0,0,.56,1.49C92.24,61.72,93,62,93.64,61.74Z"/><path class="cls-2" d="M135.12,55.87a78.44,78.44,0,0,0-4.71,8.87c-.89.85-1.83,1.73-2.83,2.65-.83.77-1.82,1.73-2.94,2.86h0A40.19,40.19,0,0,1,121,73.47a45.5,45.5,0,0,1-4.52,3.19,38.47,38.47,0,0,1-4.63,2.44,10.05,10.05,0,0,1-3.88,1,2.76,2.76,0,0,1-3.1-2.89,7.48,7.48,0,0,1,.51-2.59,11.52,11.52,0,0,1,1.31-2.54,9.22,9.22,0,0,1,1.74-2,2.83,2.83,0,0,1,1.73-.77,1.39,1.39,0,0,1,.3,0,1.45,1.45,0,0,1,.35.18,1.27,1.27,0,0,1-.27.78,5,5,0,0,0-.27.7,2.77,2.77,0,0,0-.11.78,2.73,2.73,0,0,0,.54,1.56,1.53,1.53,0,0,0,1.28.78,1.5,1.5,0,0,0,1.18-.57,4.16,4.16,0,0,0,.75-1.38,8.53,8.53,0,0,0,.37-1.63,10.74,10.74,0,0,0,.11-1.3,4.59,4.59,0,0,0-1.12-3.33,3.93,3.93,0,0,0-2.89-1.13,6.56,6.56,0,0,0-2.65.74,10.19,10.19,0,0,0-3,2.27,12.09,12.09,0,0,0-1.94,2.76l0,0c-1.18,1.09-2.47,2.19-3.88,3.32s-2.78,2.15-4.12,3a25.15,25.15,0,0,1-3.66,2.08,4.11,4.11,0,0,1-2.46.53,19.72,19.72,0,0,1,1.12-3.29c.54-1.24,1-2.49,1.53-3.74s.88-2.41,1.2-3.47a3.93,3.93,0,0,0,.16-2.44,1.73,1.73,0,0,0-1.23-1.24,3.82,3.82,0,0,0-2,0,3.76,3.76,0,0,0-1.49.74,18.3,18.3,0,0,0-1.66,1.42c-.58.54-1.14,1.1-1.71,1.69S83.45,70.45,82.92,71a2.2,2.2,0,0,0-.75,1.63,2.84,2.84,0,0,0,.43,1.59,2.39,2.39,0,0,0,1.09,1A1.18,1.18,0,0,0,85,74.86,24.56,24.56,0,0,0,86.82,73c-.28.85-.56,1.71-.83,2.58s-.49,1.69-.67,2.47A18.25,18.25,0,0,0,85,80.19a5,5,0,0,0,.09,1.6A3.12,3.12,0,0,0,87,84.26a6,6,0,0,0,3.32.07,26.22,26.22,0,0,0,4.06-1.73,32,32,0,0,0,3.69-2.3c1.1-.79,2.17-1.64,3.23-2.55a8.57,8.57,0,0,0,.54,2.69,7.58,7.58,0,0,0,1.5,2.41,5.9,5.9,0,0,0,2.22,1.48,7.48,7.48,0,0,0,2.73.5,13.17,13.17,0,0,0,5.32-1.28,40.57,40.57,0,0,0,5.53-3,42,42,0,0,0,4.82-3.61,28.27,28.27,0,0,0,2.56-2.49c-.39,1.17-.71,2.29-1,3.34s-.48,2.06-.69,3a3.83,3.83,0,0,0,.08,1.77,2.16,2.16,0,0,0,.8,1.16,1.45,1.45,0,0,0,1.34.14,3.45,3.45,0,0,0,1.57-1.3c.36-.48.9-1.25,1.61-2.34s1.48-2.17,2.3-3.25a11.68,11.68,0,0,0,1.1,3,10,10,0,0,0,1.71,2.33,6.1,6.1,0,0,0,2.22,1.45,5.28,5.28,0,0,0,2.67.25,16.54,16.54,0,0,0,4.31-1.27,23.65,23.65,0,0,0,3.82-2.23,36.26,36.26,0,0,0,3.5-2.87c1.13-1,2.22-2.09,3.29-3.18a2.39,2.39,0,0,0,.7-1.56,2.66,2.66,0,0,0-.38-1.76,1.54,1.54,0,0,0-1.17-1,1.56,1.56,0,0,0-1.34.46l-2.65,2.48c-1,.94-2.07,1.85-3.18,2.72A23.64,23.64,0,0,1,143.78,78a7.75,7.75,0,0,1-3.26,1,4.39,4.39,0,0,1-2.33-.5,4.12,4.12,0,0,1-1.79-2l.48-.21A9.14,9.14,0,0,0,139,75.07,8.79,8.79,0,0,0,140.84,73a7.84,7.84,0,0,0,1.1-2.69,5.77,5.77,0,0,0-.24-3c-.4-1.18-.93-1.86-1.61-2.05a3.19,3.19,0,0,0-2.35.42,11.91,11.91,0,0,0-2.81,2.19q-1.47,1.49-2.92,3.26c.18-.47.38-1,.59-1.45a16.43,16.43,0,0,0,.59-1.59c1.61-1.46,3.26-3,4.95-4.74s3.23-3.36,4.63-5a36.76,36.76,0,0,0,3.39-4.56,6.69,6.69,0,0,0,1.26-3.54,2.89,2.89,0,0,0-1.07-2.33,3,3,0,0,0-2.09-.39,6.64,6.64,0,0,0-2.38.89,11,11,0,0,0-1.95,1.41A26,26,0,0,0,135.12,55.87Z"/><path class="cls-2" d="M516.53,85.74a223.82,223.82,0,0,1-63.18-13.28c-5.05-1.81-11.81-4.54-16.79-3.54l0,.25a1.43,1.43,0,0,0-.23.2c-1,1-2.15,2-3.35,3s-2.42,1.86-3.69,2.7a33.91,33.91,0,0,1-3.74,2.17,15.85,15.85,0,0,1-3.5,1.29,9.77,9.77,0,0,1,.69-2c.32-.69.63-1.39.91-2.11a12.72,12.72,0,0,0,.67-2.2,4.42,4.42,0,0,0-.08-2.2,2.58,2.58,0,0,0-1.68-2.08,4.65,4.65,0,0,0-2.84.32,15.66,15.66,0,0,0-3.5,2c-1.25.9-2.48,1.88-3.69,2.92a16.88,16.88,0,0,0,.37-2.07,6.2,6.2,0,0,0-.05-1.83A4.09,4.09,0,0,0,412,67a2.75,2.75,0,0,0-1.55-.76,3.76,3.76,0,0,0-1.9.25,9.43,9.43,0,0,0-1.87,1A18,18,0,0,0,404.81,69l-1.76,1.67a2.31,2.31,0,0,0-.35.35q-1.76,1.5-3.61,3A30.62,30.62,0,0,1,394,77.42c-.72.34-1.37.62-1.95.85s-1.14.43-1.64.6A29.14,29.14,0,0,0,393.21,76a18.41,18.41,0,0,0,2.24-3.37,7,7,0,0,0,.83-3.3,3.67,3.67,0,0,0-1.47-2.81,4.17,4.17,0,0,0-2.14-.91,6.61,6.61,0,0,0-2.46.16,9.44,9.44,0,0,0-2.41,1,7.78,7.78,0,0,0-2,1.63A17.73,17.73,0,0,0,384,70.8q-.87.77-1.8,1.53c-1.2,1-2.42,1.86-3.69,2.7a33.25,33.25,0,0,1-3.74,2.17,15.74,15.74,0,0,1-3.51,1.29,10.49,10.49,0,0,1,.7-2c.32-.69.62-1.39.91-2.11a14.74,14.74,0,0,0,.67-2.2,4.42,4.42,0,0,0-.08-2.2,2.6,2.6,0,0,0-1.69-2.08,4.62,4.62,0,0,0-2.83.32,15.93,15.93,0,0,0-3.51,2c-1.25.9-2.48,1.88-3.69,2.92a17,17,0,0,0,.38-2.07,6.2,6.2,0,0,0-.06-1.83,4.09,4.09,0,0,0-.91-2.26,2.69,2.69,0,0,0-1.55-.76,3.74,3.74,0,0,0-1.89.25,9.79,9.79,0,0,0-1.88,1A17.92,17.92,0,0,0,354,69l-.88.83a2.19,2.19,0,0,0-.35.27c-.43.38-1,.86-1.72,1.45s-1.49,1.21-2.35,1.86-1.76,1.28-2.73,1.89S344,76.47,343.14,77A13.81,13.81,0,0,1,340.68,78a3.05,3.05,0,0,1-1.87.09,4.85,4.85,0,0,1,.46-2.17,25.89,25.89,0,0,1,1.17-2.45c.45-.82.88-1.58,1.31-2.3s.73-1.25.91-1.63a3.29,3.29,0,0,0,.24-1.76,2,2,0,0,0-.59-1.23,1.63,1.63,0,0,0-1.12-.41,2,2,0,0,0-1.36.63.17.17,0,0,1-.06.12s-.07.1-.1.16a2,2,0,0,1-.16.22,1.88,1.88,0,0,0-.86-1.07,7.29,7.29,0,0,0-3.5-.53,11,11,0,0,0-3.64,1,13.36,13.36,0,0,0-3.37,2.24,15.59,15.59,0,0,0-1.21,1.23,2.58,2.58,0,0,0-.37.24c-.74.63-1.63,1.37-2.64,2.21s-2.08,1.64-3.19,2.42a22.45,22.45,0,0,1-3.37,2,8.22,8.22,0,0,1-3.26.88,4.81,4.81,0,0,1-2.32-.44,3.91,3.91,0,0,1-1.8-1.76l.48-.19a9.17,9.17,0,0,0,2.09-1.13,8,8,0,0,0,1.87-1.86,6.42,6.42,0,0,0,1.1-2.39,4.59,4.59,0,0,0-.24-2.67c-.39-1-.93-1.66-1.61-1.83a3.58,3.58,0,0,0-2.35.38,11.94,11.94,0,0,0-2.81,2c-1,.88-1.95,1.85-2.91,2.9.18-.42.37-.85.59-1.29s.4-.92.58-1.42q2.42-2,5-4.22c1.69-1.51,3.24-3,4.63-4.43a33.52,33.52,0,0,0,3.39-4.06A5.49,5.49,0,0,0,321,52.25a2.46,2.46,0,0,0-1.07-2.07,3.28,3.28,0,0,0-2.08-.35,7.25,7.25,0,0,0-2.38.79,10.75,10.75,0,0,0-2,1.26,23.69,23.69,0,0,0-4.81,5.38A69.39,69.39,0,0,0,304,65.15c-.89.76-1.83,1.54-2.83,2.36s-2.2,1.87-3.62,3.17l-2.29,1.9c-1,.84-2.08,1.64-3.18,2.42a23,23,0,0,1-3.37,2,8.3,8.3,0,0,1-3.27.88,4.84,4.84,0,0,1-2.32-.44,3.89,3.89,0,0,1-1.79-1.76l.48-.19a9.33,9.33,0,0,0,2.08-1.13,8.09,8.09,0,0,0,1.88-1.86,6.56,6.56,0,0,0,1.09-2.39,4.44,4.44,0,0,0-.24-2.67c-.39-1-.93-1.66-1.6-1.83a3.6,3.6,0,0,0-2.36.38,12.14,12.14,0,0,0-2.81,2c-1,.88-1.95,1.85-2.91,2.9.18-.42.37-.85.59-1.29s.41-.92.59-1.42q2.4-2,4.94-4.22c1.7-1.51,3.24-3,4.63-4.43a34.64,34.64,0,0,0,3.4-4.06,5.53,5.53,0,0,0,1.25-3.15,2.44,2.44,0,0,0-1.07-2.07,3.28,3.28,0,0,0-2.08-.35,7.25,7.25,0,0,0-2.38.79,10.64,10.64,0,0,0-1.95,1.26A23.84,23.84,0,0,0,280,57.25a70.4,70.4,0,0,0-4.7,7.9c-.9.76-1.84,1.54-2.84,2.36s-2.21,1.88-3.64,3.18a2.55,2.55,0,0,0-.36.38,45.53,45.53,0,0,1-5.89,4.15q-3.64,2.15-7.33,4.15c.43-1.17.86-2.35,1.31-3.52s.85-2.26,1.2-3.24.67-1.84.94-2.55a14.66,14.66,0,0,0,.51-1.51A3.2,3.2,0,0,0,259,66a1.49,1.49,0,0,0-1.79-.6,2.86,2.86,0,0,0-.67.63c-.2.25-.42.53-.67.82-.46.63-1,1.37-1.55,2.2s-1.18,1.71-1.82,2.61-1.3,1.78-2,2.62a20.58,20.58,0,0,1-2,2.17,7.07,7.07,0,0,1-1.89,1.29,1.76,1.76,0,0,1-1.66-.07,3.45,3.45,0,0,1,.13-1.73,16.89,16.89,0,0,1,.83-2.23c.36-.8.74-1.59,1.15-2.39a20.35,20.35,0,0,0,1-2.3,8.56,8.56,0,0,0,.48-2,1.51,1.51,0,0,0-.4-1.32,1.9,1.9,0,0,0-1.5-.66,4.8,4.8,0,0,0-1.85.5,14.49,14.49,0,0,0-2.06,1.23c-.71.5-1.41,1-2.08,1.57s-1.09.89-1.55,1.29-.86.75-1.18,1a1.83,1.83,0,0,0-.75,1.42,2.48,2.48,0,0,0,.4,1.38,2.23,2.23,0,0,0,1.07.85,1.47,1.47,0,0,0,1.36-.19c.43-.29.86-.61,1.29-.94s.91-.74,1.44-1.2c-.43,1.09-.79,2.16-1.09,3.21a9.37,9.37,0,0,0-.41,3,4.34,4.34,0,0,0,.78,2.39A3.86,3.86,0,0,0,244.46,82a5,5,0,0,0,3.59-.47,16.08,16.08,0,0,0,3.37-2.36c-.18.51-.36,1-.54,1.48s-.37,1-.59,1.54a49.85,49.85,0,0,0-5.21,2.93q-2.49,1.61-4.9,3.36A17.71,17.71,0,0,0,237.75,91a9.62,9.62,0,0,0-1.1,1.72l-11.21,1.11q4.77-12.21,11.87-27.29c13-27.29,19.32-43.89,19.32-50.76v-1c0-1.41-.54-3.83-4.17-4.29H252c-4.88,0-10.79,4.4-18,13.42-2.81,3.25-7.21,8.87-13.12,16.72-10.62,15.29-18.38,26-23.13,31.88,3.15-17.23,5-28.38,5.43-33.24,0-4.88-2.49-5.61-4-5.61h-.68c-1.09,0-2.44.71-4.25,2.23l-.19.22c-4.8,7.19-13.22,22.83-25.09,46.53,4.24-12.95,9.21-26.26,14.84-39.71l.14-.31-.59-2.44h-3l-.18.07a9.21,9.21,0,0,0-5.09,4.4l-.35.69.57.53a3.42,3.42,0,0,0,1.55.8c-11.6,28.63-17.25,45.32-17.25,51v.68c0,1.25,1.51,1.75,2.07,1.94l.16,0H162a17.53,17.53,0,0,0,2.76-.33l.44-.08.25-.37c4.17-6.36,11.76-20.76,22.54-42.81,4-8,7.25-13.67,9.78-17-.06.9-.16,2-.3,3.28-3.7,20.56-5.5,31.61-5.5,33.77,0,1.11.46,3,3.51,3.34h.42c1.62,0,3.55-1.49,6.1-4.74l26.69-37.15c9.85-13.2,17.42-21.22,22.53-23.87a9.05,9.05,0,0,1,.43,1.69,43.32,43.32,0,0,1-2.87,10.74c-2.06,5.75-5.46,14.07-10.06,24.68Q226.56,76,219.62,94.36c-23,2.32-42.64,4.35-44.61,4.55q-50.19,7.16-100.28,14.83c-1.83.28-3.39,2-5.08,3,2,.61,4.17,2,6,1.73,15.35-2,30.62-4.47,46-6.58q18.89-2.6,37.77-5h0l23.9-3.14.24.68,7.58-.76,0-.68,26.18-2.31c-4.54,13-6.83,23.38-6.83,30.93,0,5,1.45,7.56,4.3,7.56,2.65,0,3.75-1.22,4.21-2.25l.09-.2V134.5h-1a1.27,1.27,0,0,1-.69-.18l-.46-.31-.87.36-.21-1.83V131c0-7.26,2.43-17.57,7.2-30.79L236.53,99a6.16,6.16,0,0,0,1.19,1.28,4.72,4.72,0,0,0,2.92,1.36,5,5,0,0,0,2.75-.79,10.58,10.58,0,0,0,2.52-2.23l.36-.48.65-.06a2.76,2.76,0,0,1,.08.27c13.22-1.18,23.88-2,28.1-2.08a99.45,99.45,0,0,1,11.62-.15c1.23.05,2.48-.06,3.72-.09a864.25,864.25,0,0,1,142.94,7.43c2,.28,4.25-.89,6.39-1.38-1.84-1.13-3.54-3-5.53-3.26-10.81-1.6-21.66-3.21-32.57-4.09-21.48-1.72-43-3-65.11-4.46,3.79-.34,7.05-.81,10.31-.91,56.46-1.73,112.92-3.07,169.31,1.67,2.55.22,5.28-1.35,7.92-2.09C521.59,87.82,519.12,85.89,516.53,85.74Zm-270.8,6-3.52.34c.5-.41,1-.84,1.67-1.29,1.1-.79,2.28-1.59,3.53-2.39C246.86,89.63,246.3,90.73,245.73,91.77Zm82-15.48A7.54,7.54,0,0,1,328.84,74a10.9,10.9,0,0,1,1.84-2,11.51,11.51,0,0,1,2.22-1.44,7.65,7.65,0,0,1,2.28-.73,3.41,3.41,0,0,1,1.92.22h.11c-.86,1-1.81,2.19-2.86,3.4s-2.05,2.29-3,3.21a16.54,16.54,0,0,1-2.43,2c-.68.44-1.07.41-1.18-.09A4.06,4.06,0,0,1,327.71,76.29Zm47,6.81v.19h-4.33c-25.91,1.15-52.94,2.72-67.85,3.61l-7.35.44-1.38.09c-6.8.4-24.07,2-43.4,3.89.32-.66.61-1.28.86-1.82L253,85.22c1.07-.63,2.1-1.2,3.1-1.72s1.9-1,2.7-1.45l2.06-1.14c.57-.31,1-.53,1.18-.66,1-.54,1.9-1.07,2.7-1.57s1.59-1,2.36-1.54,1.54-1.09,2.32-1.7c.52-.4,1.08-.87,1.67-1.38l.36-.29c-.39,1-.71,2-1,3s-.48,1.84-.69,2.68a3,3,0,0,0,.08,1.57,1.84,1.84,0,0,0,.8,1,1.59,1.59,0,0,0,1.33.12A3.32,3.32,0,0,0,273.56,81c.36-.42.89-1.11,1.61-2.08s1.48-1.93,2.3-2.89a9.66,9.66,0,0,0,1.09,2.64,9,9,0,0,0,1.72,2.08,6,6,0,0,0,4.89,1.51,17.63,17.63,0,0,0,4.31-1.14,23.05,23.05,0,0,0,3.82-2,35.81,35.81,0,0,0,3.5-2.54c1.13-.93,2.22-1.87,3.29-2.84-.39,1-.71,2-1,3l-.7,2.68a3.13,3.13,0,0,0,.08,1.57,1.9,1.9,0,0,0,.81,1,1.59,1.59,0,0,0,1.33.12A3.32,3.32,0,0,0,302.23,81c.36-.42.89-1.11,1.6-2.08S305.31,77,306.14,76a9.66,9.66,0,0,0,1.09,2.64,8.92,8.92,0,0,0,1.71,2.08,6.22,6.22,0,0,0,2.22,1.29,6.09,6.09,0,0,0,2.68.22,17.43,17.43,0,0,0,4.3-1.14,23.15,23.15,0,0,0,3.83-2c.66-.42,1.31-.87,1.95-1.34a9.15,9.15,0,0,0,.29,2.19,4.47,4.47,0,0,0,1.61,2.55,3.64,3.64,0,0,0,2.35.63,6.34,6.34,0,0,0,2.6-.82,9.46,9.46,0,0,0,2.32-1.79c.39-.38.75-.73,1.07-1.07l1-1.07a4.64,4.64,0,0,0,.64,2.49,3.62,3.62,0,0,0,2.25,1.47,7.4,7.4,0,0,0,4.11-.47A28.5,28.5,0,0,0,347,79.66a42.31,42.31,0,0,0,4.57-3.12,39.11,39.11,0,0,0,3.4-2.94c.29-.23.57-.47.85-.71.5-.41.94-.76,1.34-1a4.5,4.5,0,0,1,1-.57c.29-.1.48-.07.59.09a1.51,1.51,0,0,1,0,1A13,13,0,0,1,358,74c-.26.58-.57,1.21-.91,1.88s-.67,1.3-1,1.89a25.34,25.34,0,0,0-1.21,2.65,1.72,1.72,0,0,0,.4,2,1.27,1.27,0,0,0,1.45.22,5.94,5.94,0,0,0,1.63-1.13,18.33,18.33,0,0,0,1.6-1.76,18,18,0,0,1,1.42-1.61c.39-.34.93-.79,1.6-1.35s1.4-1.16,2.17-1.77,1.54-1.16,2.33-1.66a10.08,10.08,0,0,1,2.08-1.07c-.25.71-.6,1.62-1,2.73a15.73,15.73,0,0,0-.94,3.31,6.25,6.25,0,0,0,.14,2.92,2.3,2.3,0,0,0,2.11,1.55,8,8,0,0,0,4.38-.73,31.72,31.72,0,0,0,5.06-2.67c.92-.6,1.81-1.22,2.69-1.87a7,7,0,0,0,.49,2.28,5.31,5.31,0,0,0,2.9,2.82Q380.12,82.87,374.66,83.1Zm12.88-6.9c-.68.6-1.22,1-1.61,1.35h-.1a4.32,4.32,0,0,1,.29-2.55,10.81,10.81,0,0,1,.65-1.38c.37-.34.73-.67,1-1a2,2,0,0,0,.63-1.22A7.71,7.71,0,0,1,390,70.19a2.92,2.92,0,0,1,2.54-.32A6.87,6.87,0,0,1,391.47,72a23.76,23.76,0,0,1-1.87,2.23C388.9,74.91,388.21,75.59,387.54,76.2Zm18.66,6.26.17.11H392.1c.39-.13.8-.27,1.21-.43a19.83,19.83,0,0,0,2.94-1.41c1.14-.65,2.3-1.39,3.48-2.21S402,76.87,403.1,76a32.15,32.15,0,0,0,2.73-2.43.6.6,0,0,0,.08-.08l.72-.61c.5-.42.94-.76,1.34-1a4.62,4.62,0,0,1,1-.56c.29-.11.48-.08.59.09a1.51,1.51,0,0,1-.05,1,11.51,11.51,0,0,1-.62,1.6q-.4.89-.9,1.89c-.34.67-.67,1.3-1,1.89q-.74,1.45-1.2,2.64A1.74,1.74,0,0,0,406.2,82.46Zm12.44-1.17a2,2,0,0,0,1.2,1.28h-12a5.7,5.7,0,0,0,1.44-1,17.21,17.21,0,0,0,1.6-1.76,17.77,17.77,0,0,1,1.42-1.6c.39-.34.93-.79,1.6-1.35s1.4-1.16,2.17-1.77,1.54-1.16,2.32-1.66a9.88,9.88,0,0,1,2.09-1.07c-.25.71-.6,1.62-1,2.73a15.56,15.56,0,0,0-.94,3.31A6.39,6.39,0,0,0,418.64,81.29Zm5.17,1.28a11.59,11.59,0,0,0,1.32-.46,31.72,31.72,0,0,0,5.06-2.67A50.43,50.43,0,0,0,435,75.91c1.32-1.09,2.39-2,3.26-2.88,3.72-.94,8.18,1.47,12.76,3.6,5.25,2.43,11.09,3.83,17.46,5.94Z"/><path class="cls-2" d="M448.92,100a3.73,3.73,0,1,0,0,7.43A3.73,3.73,0,1,0,448.92,100Z"/></g></g></g></svg>